<svg width="24" height="24" viewBox="0 0 24 24" fill="none" xmlns="http://www.w3.org/2000/svg">
<g clip-path="url(#clip0_1038_7679)">
<path d="M12 4C14.1217 4 16.1566 4.84285 17.6569 6.34315C19.1571 7.84344 20 9.87827 20 12C20 14.1217 19.1571 16.1566 17.6569 17.6569C16.1566 19.1571 14.1217 20 12 20C9.87827 20 7.84344 19.1571 6.34315 17.6569C4.84285 16.1566 4 14.1217 4 12C4 9.87827 4.84285 7.84344 6.34315 6.34315C7.84344 4.84285 9.87827 4 12 4ZM12 5C10.1435 5 8.36301 5.7375 7.05025 7.05025C5.7375 8.36301 5 10.1435 5 12C5 13.8565 5.7375 15.637 7.05025 16.9497C8.36301 18.2625 10.1435 19 12 19C13.8565 19 15.637 18.2625 16.9497 16.9497C18.2625 15.637 19 13.8565 19 12C19 10.1435 18.2625 8.36301 16.9497 7.05025C15.637 5.7375 13.8565 5 12 5ZM15.974 9.342C16.011 9.45291 16.0079 9.57327 15.9653 9.68216C15.9228 9.79104 15.8434 9.88157 15.741 9.938L15.658 9.974L13 10.86V13.419L13.974 16.342C14.011 16.4529 14.0079 16.5733 13.9653 16.6822C13.9228 16.791 13.8434 16.8816 13.741 16.938L13.658 16.974C13.5471 17.011 13.4267 17.0079 13.3178 16.9653C13.209 16.9228 13.1184 16.8434 13.062 16.741L13.026 16.658L12.026 13.658L12 13.5L11.974 13.658L10.974 16.658C10.9351 16.7771 10.853 16.8773 10.7437 16.9387C10.6345 17.0002 10.5062 17.0183 10.3842 16.9897C10.2623 16.961 10.1555 16.8876 10.0851 16.7839C10.0147 16.6803 9.98572 16.554 10.004 16.43L10.026 16.342L11 13.416V10.86L8.342 9.974C8.22287 9.93514 8.12268 9.85297 8.06125 9.74375C7.99983 9.63453 7.98165 9.50623 8.01032 9.38424C8.039 9.26226 8.11243 9.15549 8.21607 9.08507C8.31972 9.01465 8.44603 8.98572 8.57 9.004L8.658 9.026L11.583 10H12.416L15.342 9.026C15.4677 8.9842 15.6049 8.99399 15.7234 9.05324C15.8419 9.11249 15.932 9.21635 15.974 9.342ZM12 7C12.2652 7 12.5196 7.10536 12.7071 7.29289C12.8946 7.48043 13 7.73478 13 8C13 8.26522 12.8946 8.51957 12.7071 8.70711C12.5196 8.89464 12.2652 9 12 9C11.7348 9 11.4804 8.89464 11.2929 8.70711C11.1054 8.51957 11 8.26522 11 8C11 7.73478 11.1054 7.48043 11.2929 7.29289C11.4804 7.10536 11.7348 7 12 7Z" fill="#0F172A"/>
</g>
<defs>
<clipPath id="clip0_1038_7679">
<rect width="16" height="16" fill="white" transform="translate(4 4)"/>
</clipPath>
</defs>
</svg>
