<svg width="24" height="24" viewBox="0 0 24 24" fill="none" xmlns="http://www.w3.org/2000/svg">
<path d="M22 10.6477L20.0667 8.71119L17.9 10.8815C17.8 10.9816 17.6333 10.9816 17.5667 10.8815L13.1333 6.44073C13.0333 6.34057 13.0333 6.17362 13.1333 6.10684L15.3 3.93656L13.3667 2L2 13.3856L3.93333 15.3222L6.03333 13.2187C6.13333 13.1185 6.3 13.1185 6.36667 13.2187L10.7667 17.626C10.8667 17.7262 10.8667 17.8932 10.7667 17.9599L8.66667 20.0634L10.6 22L22 10.6477ZM19.4333 10.6477C19.3333 10.5476 19.3333 10.414 19.4333 10.3472L20.1 9.67947C20.2 9.5793 20.3333 9.5793 20.4 9.67947L21.0667 10.3472C21.1667 10.4474 21.1667 10.581 21.0667 10.6477L20.4 11.3155C20.3 11.4157 20.1667 11.4157 20.1 11.3155L19.4333 10.6477ZM12.7 3.90317C12.6 3.803 12.6 3.66945 12.7 3.60267L13.3667 2.93489C13.4667 2.83472 13.6 2.83472 13.6667 2.93489L14.3333 3.60267C14.4333 3.70284 14.4333 3.83639 14.3333 3.90317L13.6667 4.57095C13.5667 4.67112 13.4333 4.67112 13.3667 4.57095L12.7 3.90317ZM4.53333 13.3856C4.63333 13.4858 4.63333 13.6194 4.53333 13.6861L3.86667 14.3539C3.76667 14.4541 3.63333 14.4541 3.56667 14.3539L2.9 13.6861C2.8 13.586 2.8 13.4524 2.9 13.3856L3.56667 12.7179C3.66667 12.6177 3.8 12.6177 3.86667 12.7179L4.53333 13.3856ZM15.2 16.1903C15.3 16.2905 15.3 16.424 15.2 16.4908L14.5333 17.1586C14.4333 17.2588 14.3 17.2588 14.2333 17.1586L13.5667 16.4908C13.4667 16.3907 13.4667 16.2571 13.5667 16.1903L14.2333 15.5225C14.3333 15.4224 14.4667 15.4224 14.5333 15.5225L15.2 16.1903ZM17.1333 14.2204C17.2333 14.3205 17.2333 14.4541 17.1333 14.5209L16.4667 15.1886C16.3667 15.2888 16.2333 15.2888 16.1667 15.1886L15.5 14.5209C15.4 14.4207 15.4 14.2871 15.5 14.2204L16.1667 13.5526C16.2667 13.4524 16.4 13.4524 16.4667 13.5526L17.1333 14.2204ZM10.7333 5.83973C10.6333 5.73957 10.6333 5.60601 10.7333 5.53923L11.4 4.87145C11.5 4.77129 11.6333 4.77129 11.7 4.87145L12.3667 5.53923C12.4667 5.6394 12.4667 5.77295 12.3667 5.83973L11.7 6.50751C11.6 6.60768 11.4667 6.60768 11.4 6.50751L10.7333 5.83973ZM17.4667 12.5843C17.3667 12.4841 17.3667 12.3506 17.4667 12.2838L18.1333 11.616C18.2333 11.5159 18.3667 11.5159 18.4333 11.616L19.1 12.2838C19.2 12.384 19.2 12.5175 19.1 12.5843L18.4333 13.2521C18.3333 13.3523 18.2 13.3523 18.1333 13.2521L17.4667 12.5843ZM8.8 7.80968C8.7 7.70952 8.7 7.57596 8.8 7.50918L9.46667 6.8414C9.56667 6.74124 9.7 6.74124 9.76667 6.8414L10.4333 7.50918C10.5333 7.60935 10.5333 7.7429 10.4333 7.80968L9.76667 8.47746C9.66667 8.57763 9.53333 8.57763 9.46667 8.47746L8.8 7.80968ZM6.83333 9.77963C6.73333 9.67947 6.73333 9.54591 6.83333 9.47913L7.5 8.81135C7.6 8.71118 7.73333 8.71118 7.8 8.81135L8.46667 9.47913C8.56667 9.5793 8.56667 9.71285 8.46667 9.77963L7.8 10.4474C7.7 10.5476 7.56667 10.5476 7.5 10.4474L6.83333 9.77963ZM7.43333 12.1836C7.33333 12.0835 7.33333 11.9165 7.43333 11.8497L11.8333 7.4424C11.9333 7.34224 12.1 7.34224 12.1667 7.4424L16.5667 11.8497C16.6667 11.9499 16.6667 12.1169 16.5667 12.1836L12.1667 16.591C12.0667 16.6912 11.9 16.6912 11.8333 16.591L7.43333 12.1836ZM4.86667 11.7162C4.76667 11.616 4.76667 11.4825 4.86667 11.4157L5.53333 10.7479C5.63333 10.6477 5.76667 10.6477 5.83333 10.7479L6.5 11.4157C6.6 11.5159 6.6 11.6494 6.5 11.7162L5.83333 12.384C5.73333 12.4841 5.6 12.4841 5.53333 12.384L4.86667 11.7162ZM11.6 18.4608C11.5 18.3606 11.5 18.227 11.6 18.1603L12.2667 17.4925C12.3667 17.3923 12.5 17.3923 12.5667 17.4925L13.2333 18.1603C13.3333 18.2604 13.3333 18.394 13.2333 18.4608L12.5667 19.1285C12.4667 19.2287 12.3333 19.2287 12.2667 19.1285L11.6 18.4608ZM9.63333 20.4307C9.53333 20.3306 9.53333 20.197 9.63333 20.1302L10.3 19.4624C10.4 19.3623 10.5333 19.3623 10.6 19.4624L11.2667 20.1302C11.3667 20.2304 11.3667 20.3639 11.2667 20.4307L10.6 21.0985C10.5 21.1987 10.3667 21.1987 10.3 21.0985L9.63333 20.4307Z" fill="#0F172A"/>
</svg>
