<svg width="30" height="30" viewBox="0 0 30 30" fill="none" xmlns="http://www.w3.org/2000/svg">
<path d="M7.28613 5H22.7139C23.7377 5 24.7087 5.35665 25.415 5.97461C26.1193 6.59085 26.5 7.41123 26.5 8.25V21.75C26.5 22.5888 26.1193 23.4091 25.415 24.0254C24.7087 24.6434 23.7377 25 22.7139 25H7.28613C6.26227 25 5.29134 24.6434 4.58496 24.0254C3.88069 23.4091 3.5 22.5888 3.5 21.75V8.25C3.5 7.41123 3.88069 6.59085 4.58496 5.97461C5.29134 5.35665 6.26227 5 7.28613 5ZM4.21387 21.75C4.21387 22.5025 4.55698 23.2078 5.13867 23.7168C5.71823 24.2239 6.49152 24.5 7.28613 24.5H22.7139C23.5085 24.5 24.2818 24.2239 24.8613 23.7168C25.443 23.2078 25.7861 22.5025 25.7861 21.75V10H4.21387V21.75ZM9.85742 18.5C10.1993 18.5001 10.5161 18.6193 10.7402 18.8154C10.9623 19.0097 11.0713 19.258 11.0713 19.5C11.0713 19.742 10.9623 19.9903 10.7402 20.1846C10.5161 20.3807 10.1993 20.4999 9.85742 20.5C9.51558 20.5 9.19876 20.3806 8.97461 20.1846C8.75257 19.9903 8.64258 19.742 8.64258 19.5C8.64258 19.258 8.75257 19.0097 8.97461 18.8154C9.19876 18.6194 9.51558 18.5 9.85742 18.5ZM15 18.5C15.3419 18.5 15.6587 18.6194 15.8828 18.8154C16.1049 19.0097 16.2139 19.258 16.2139 19.5C16.2139 19.742 16.1049 19.9903 15.8828 20.1846C15.6587 20.3806 15.3419 20.5 15 20.5C14.6581 20.5 14.3413 20.3806 14.1172 20.1846C13.8951 19.9903 13.7861 19.742 13.7861 19.5C13.7861 19.258 13.8951 19.0097 14.1172 18.8154C14.3413 18.6194 14.6581 18.5 15 18.5ZM9.85742 14C10.1993 14.0001 10.5161 14.1193 10.7402 14.3154C10.9623 14.5097 11.0713 14.758 11.0713 15C11.0713 15.242 10.9623 15.4903 10.7402 15.6846C10.5161 15.8807 10.1993 15.9999 9.85742 16C9.51558 16 9.19876 15.8806 8.97461 15.6846C8.75257 15.4903 8.64258 15.242 8.64258 15C8.64258 14.758 8.75257 14.5097 8.97461 14.3154C9.19876 14.1194 9.51558 14 9.85742 14ZM15 14C15.3419 14 15.6587 14.1194 15.8828 14.3154C16.1049 14.5097 16.2139 14.758 16.2139 15C16.2139 15.242 16.1049 15.4903 15.8828 15.6846C15.6587 15.8806 15.3419 16 15 16C14.6581 16 14.3413 15.8806 14.1172 15.6846C13.8951 15.4903 13.7861 15.242 13.7861 15C13.7861 14.758 13.8951 14.5097 14.1172 14.3154C14.3413 14.1194 14.6581 14 15 14ZM20.1426 14C20.4844 14 20.8012 14.1194 21.0254 14.3154C21.2474 14.5097 21.3574 14.758 21.3574 15C21.3574 15.242 21.2474 15.4903 21.0254 15.6846C20.8012 15.8806 20.4844 16 20.1426 16C19.8007 15.9999 19.4839 15.8807 19.2598 15.6846C19.0377 15.4903 18.9287 15.242 18.9287 15C18.9287 14.758 19.0377 14.5097 19.2598 14.3154C19.4839 14.1193 19.8007 14.0001 20.1426 14ZM7.28613 5.5C6.49152 5.5 5.71823 5.77611 5.13867 6.2832C4.55698 6.79218 4.21387 7.49747 4.21387 8.25V9.5H25.7861V8.25C25.7861 7.49747 25.443 6.79218 24.8613 6.2832C24.2818 5.77611 23.5085 5.5 22.7139 5.5H7.28613Z" fill="#0F172A" stroke="#0F172A"/>
</svg>
