<svg width="24" height="24" viewBox="0 0 24 24" fill="none" xmlns="http://www.w3.org/2000/svg">
<path d="M12.5 9.5C13.0357 7.1973 15.059 6.02151 19.4643 6C19.5347 5.99971 19.6045 6.01461 19.6696 6.04382C19.7347 6.07303 19.7939 6.11599 19.8437 6.17021C19.8935 6.22444 19.9329 6.28886 19.9598 6.35976C19.9866 6.43067 20.0003 6.50665 20 6.58334V17.0833C20 17.238 19.9436 17.3864 19.8431 17.4958C19.7426 17.6052 19.6064 17.6667 19.4643 17.6667C15.1786 17.6667 13.5229 18.6077 12.5 20M12.5 9.5C11.9643 7.1973 9.94096 6.02151 5.53572 6C5.46529 5.99971 5.39551 6.01461 5.3304 6.04382C5.26528 6.07303 5.20612 6.11599 5.15632 6.17021C5.10652 6.22444 5.06707 6.28886 5.04024 6.35976C5.01341 6.43067 4.99974 6.50665 5 6.58334V17.013C5 17.3732 5.20491 17.6667 5.53572 17.6667C9.82143 17.6667 11.4831 18.6146 12.5 20M12.5 9.5V20" stroke="#0F172A" stroke-linecap="round" stroke-linejoin="round"/>
</svg>
