<svg width="24" height="24" viewBox="0 0 24 24" fill="none" xmlns="http://www.w3.org/2000/svg">
<path d="M13.9841 6.01098C13.9841 3.79598 12.2051 2.00098 10.0111 2.00098C7.81711 2.00098 6.03711 3.79598 6.03711 6.01098" stroke="#0F172A" stroke-linecap="round" stroke-linejoin="round"/>
<path d="M9.37543 21.9919L9.27143 20.8959C8.78343 18.8779 8.11743 18.6119 7.03243 17.1659C6.54243 16.5139 5.51943 15.5889 4.68243 14.3389C4.12543 13.5069 4.86943 11.6139 6.56543 12.1909C6.84743 12.2869 7.08543 12.4799 7.29543 12.6909L8.94143 14.3449C8.92843 12.0069 8.95843 7.2479 8.92143 5.7879C8.88543 4.3279 11.4194 3.8579 11.5694 5.8539V10.3459M11.5694 10.3459V11.2109M11.5694 10.3459C12.3974 9.2479 13.9654 9.2089 14.1944 11.0469M14.1944 11.0469C14.2314 11.3469 14.2344 11.6969 14.1944 12.0999M14.1944 11.0469C14.6124 9.7629 16.4524 10.2729 16.8184 11.7669C16.9044 12.1219 16.8184 12.5319 16.8534 13.0049M16.8184 11.7679C17.0554 11.0479 19.6834 10.9939 19.4344 13.7769L19.4994 16.3009C19.3994 17.8079 19.1774 18.4389 18.6364 19.1679C18.3564 19.5449 17.9874 19.8779 17.8464 20.3269C17.7294 20.7029 17.6544 21.2539 17.7364 21.9989" stroke="#0F172A" stroke-linecap="round" stroke-linejoin="round"/>
</svg>
