<svg width="24" height="24" viewBox="0 0 24 24" fill="none" xmlns="http://www.w3.org/2000/svg">
<path d="M7.31522 11.055V15.231M10.5612 8.638V6.555C10.5612 5.663 9.83422 4.94 8.93822 4.94C8.04222 4.94 7.31522 5.663 7.31522 6.555V10.302M7.31522 10.302L5.85622 10.764C5.26579 10.9512 4.74607 11.3131 4.36575 11.802C3.98544 12.2909 3.76243 12.8837 3.72622 13.502L3.71122 13.758C3.65509 14.7209 3.7963 15.6851 4.12619 16.5915C4.45609 17.4979 4.9677 18.3273 5.62964 19.0288C6.29158 19.7304 7.08989 20.2893 7.97558 20.6712C8.86128 21.0532 9.81568 21.2501 10.7802 21.25H13.7302C15.4727 21.25 17.1438 20.5578 18.3759 19.3257C19.608 18.0936 20.3002 16.4225 20.3002 14.68V8.745C20.2989 8.3157 20.1272 7.90447 19.8229 7.60166C19.5186 7.29885 19.1065 7.12921 18.6772 7.13C18.2477 7.12894 17.8354 7.29846 17.5309 7.60131C17.2264 7.90415 17.0545 8.31553 17.0532 8.745M7.31522 10.302L7.31422 11.4M10.5612 9.736V4.365C10.5625 3.9357 10.7342 3.52447 11.0385 3.22166C11.3428 2.91885 11.7549 2.74921 12.1842 2.75C13.0812 2.75 13.8072 3.473 13.8072 4.365V9.73M13.8072 9.735V6.555C13.822 6.13442 13.9994 5.73599 14.3022 5.44367C14.605 5.15136 15.0094 4.98799 15.4302 4.98799C15.8511 4.98799 16.2555 5.15136 16.5582 5.44367C16.861 5.73599 17.0385 6.13442 17.0532 6.555V8.745M17.0532 8.745V9.735" stroke="#0F172A" stroke-linecap="round" stroke-linejoin="round"/>
</svg>
