<svg width="24" height="24" viewBox="0 0 24 24" fill="none" xmlns="http://www.w3.org/2000/svg">
<path d="M14.5 10.5C13.7044 10.5 12.9413 10.1839 12.3787 9.62132C11.8161 9.05871 11.5 8.29565 11.5 7.5V3.5H7.5C6.96957 3.5 6.46086 3.71071 6.08579 4.08579C5.71071 4.46086 5.5 4.96957 5.5 5.5V18.5C5.5 19.0304 5.71071 19.5391 6.08579 19.9142C6.46086 20.2893 6.96957 20.5 7.5 20.5H16.5C17.0304 20.5 17.5391 20.2893 17.9142 19.9142C18.2893 19.5391 18.5 19.0304 18.5 18.5V10.5H14.5ZM12.5 7.5C12.5 8.03043 12.7107 8.53914 13.0858 8.91421C13.4609 9.28929 13.9696 9.5 14.5 9.5H18.09L12.5 3.91V7.5ZM7.5 2.5H12.5L19.5 9.5V18.5C19.5 19.2956 19.1839 20.0587 18.6213 20.6213C18.0587 21.1839 17.2956 21.5 16.5 21.5H7.5C6.70435 21.5 5.94129 21.1839 5.37868 20.6213C4.81607 20.0587 4.5 19.2956 4.5 18.5V5.5C4.5 4.70435 4.81607 3.94129 5.37868 3.37868C5.94129 2.81607 6.70435 2.5 7.5 2.5Z" fill="#0F172A"/>
</svg>
