<svg width="24" height="24" viewBox="0 0 24 24" fill="none" xmlns="http://www.w3.org/2000/svg">
<path d="M21.25 11.9994H8.895M4.534 11.9994H2.75M4.534 11.9994C4.534 11.4212 4.76368 10.8667 5.17251 10.4579C5.58134 10.0491 6.13583 9.8194 6.714 9.8194C7.29217 9.8194 7.84666 10.0491 8.25549 10.4579C8.66432 10.8667 8.894 11.4212 8.894 11.9994C8.894 12.5776 8.66432 13.1321 8.25549 13.5409C7.84666 13.9497 7.29217 14.1794 6.714 14.1794C6.13583 14.1794 5.58134 13.9497 5.17251 13.5409C4.76368 13.1321 4.534 12.5776 4.534 11.9994ZM21.25 18.6064H15.502M15.502 18.6064C15.502 19.1847 15.2718 19.7398 14.8628 20.1487C14.4539 20.5577 13.8993 20.7874 13.321 20.7874C12.7428 20.7874 12.1883 20.5567 11.7795 20.1479C11.3707 19.7391 11.141 19.1846 11.141 18.6064M15.502 18.6064C15.502 18.0281 15.2718 17.474 14.8628 17.0651C14.4539 16.6561 13.8993 16.4264 13.321 16.4264C12.7428 16.4264 12.1883 16.6561 11.7795 17.0649C11.3707 17.4737 11.141 18.0282 11.141 18.6064M11.141 18.6064H2.75M21.25 5.3924H18.145M13.784 5.3924H2.75M13.784 5.3924C13.784 4.81423 14.0137 4.25974 14.4225 3.85091C14.8313 3.44208 15.3858 3.2124 15.964 3.2124C16.2503 3.2124 16.5338 3.26879 16.7983 3.37835C17.0627 3.4879 17.3031 3.64848 17.5055 3.85091C17.7079 4.05334 17.8685 4.29366 17.9781 4.55815C18.0876 4.82264 18.144 5.10612 18.144 5.3924C18.144 5.67868 18.0876 5.96216 17.9781 6.22665C17.8685 6.49114 17.7079 6.73146 17.5055 6.93389C17.3031 7.13633 17.0627 7.2969 16.7983 7.40646C16.5338 7.51602 16.2503 7.5724 15.964 7.5724C15.3858 7.5724 14.8313 7.34272 14.4225 6.93389C14.0137 6.52507 13.784 5.97057 13.784 5.3924Z" stroke="black" stroke-miterlimit="10" stroke-linecap="round"/>
</svg>
