<svg width="24" height="24" viewBox="0 0 24 24" fill="none" xmlns="http://www.w3.org/2000/svg">
<path d="M12 8.5C14.5 8.5 16.5 10.5 16.5 13C16.5 15.5 14.5 17.5 12 17.5C9.5 17.5 7.5 15.5 7.5 13C7.5 10.5 9.5 8.5 12 8.5ZM12 9.5C11.0717 9.5 10.1815 9.86875 9.52513 10.5251C8.86875 11.1815 8.5 12.0717 8.5 13C8.5 13.9283 8.86875 14.8185 9.52513 15.4749C10.1815 16.1313 11.0717 16.5 12 16.5C12.9283 16.5 13.8185 16.1313 14.4749 15.4749C15.1313 14.8185 15.5 13.9283 15.5 13C15.5 12.0717 15.1313 11.1815 14.4749 10.5251C13.8185 9.86875 12.9283 9.5 12 9.5ZM5.5 5.5H7.5L9.5 3.5H14.5L16.5 5.5H18.5C19.2956 5.5 20.0587 5.81607 20.6213 6.37868C21.1839 6.94129 21.5 7.70435 21.5 8.5V17.5C21.5 18.2956 21.1839 19.0587 20.6213 19.6213C20.0587 20.1839 19.2956 20.5 18.5 20.5H5.5C4.70435 20.5 3.94129 20.1839 3.37868 19.6213C2.81607 19.0587 2.5 18.2956 2.5 17.5V8.5C2.5 7.70435 2.81607 6.94129 3.37868 6.37868C3.94129 5.81607 4.70435 5.5 5.5 5.5ZM9.91 4.5L7.91 6.5H5.5C4.96957 6.5 4.46086 6.71071 4.08579 7.08579C3.71071 7.46086 3.5 7.96957 3.5 8.5V17.5C3.5 18.0304 3.71071 18.5391 4.08579 18.9142C4.46086 19.2893 4.96957 19.5 5.5 19.5H18.5C19.0304 19.5 19.5391 19.2893 19.9142 18.9142C20.2893 18.5391 20.5 18.0304 20.5 17.5V8.5C20.5 7.96957 20.2893 7.46086 19.9142 7.08579C19.5391 6.71071 19.0304 6.5 18.5 6.5H16.09L14.09 4.5H9.91Z" fill="#0F172A"/>
</svg>
