<svg width="30" height="30" viewBox="0 0 30 30" fill="none" xmlns="http://www.w3.org/2000/svg">
<path d="M18.75 26.875V16.875C18.75 16.5435 18.6183 16.2255 18.3839 15.9911C18.1495 15.7567 17.8315 15.625 17.5 15.625H12.5C12.1685 15.625 11.8505 15.7567 11.6161 15.9911C11.3817 16.2255 11.25 16.5435 11.25 16.875V26.875" stroke="#0F172A" stroke-width="1.5" stroke-linecap="round" stroke-linejoin="round"/>
<path d="M3.75 13.1251C3.74991 12.7614 3.82917 12.4021 3.98223 12.0723C4.1353 11.7424 4.3585 11.4499 4.63625 11.2151L13.3862 3.71511C13.8375 3.33375 14.4092 3.12451 15 3.12451C15.5908 3.12451 16.1625 3.33375 16.6138 3.71511L25.3638 11.2151C25.6415 11.4499 25.8647 11.7424 26.0178 12.0723C26.1708 12.4021 26.2501 12.7614 26.25 13.1251V24.3751C26.25 25.0382 25.9866 25.674 25.5178 26.1429C25.0489 26.6117 24.413 26.8751 23.75 26.8751H6.25C5.58696 26.8751 4.95107 26.6117 4.48223 26.1429C4.01339 25.674 3.75 25.0382 3.75 24.3751V13.1251Z" stroke="#0F172A" stroke-width="1.5" stroke-linecap="round" stroke-linejoin="round"/>
</svg>
