<svg width="30" height="30" viewBox="0 0 30 30" fill="none" xmlns="http://www.w3.org/2000/svg">
<path d="M21.6667 4.5H24.3333C25.0406 4.5 25.7189 4.81607 26.219 5.37868C26.719 5.94129 27 6.70435 27 7.5V10.5M27 19.5V22.5C27 23.2956 26.719 24.0587 26.219 24.6213C25.7189 25.1839 25.0406 25.5 24.3333 25.5H21.6667M8.33333 25.5H5.66667C4.95942 25.5 4.28115 25.1839 3.78105 24.6213C3.28095 24.0587 3 23.2956 3 22.5V19.5M3 10.5V7.5C3 6.70435 3.28095 5.94129 3.78105 5.37868C4.28115 4.81607 4.95942 4.5 5.66667 4.5H8.33333M8.33333 12C8.33333 11.6022 8.47381 11.2206 8.72386 10.9393C8.97391 10.658 9.31304 10.5 9.66667 10.5H20.3333C20.687 10.5 21.0261 10.658 21.2761 10.9393C21.5262 11.2206 21.6667 11.6022 21.6667 12V18C21.6667 18.3978 21.5262 18.7794 21.2761 19.0607C21.0261 19.342 20.687 19.5 20.3333 19.5H9.66667C9.31304 19.5 8.97391 19.342 8.72386 19.0607C8.47381 18.7794 8.33333 18.3978 8.33333 18V12Z" stroke="#0F172A" stroke-width="1.5" stroke-linecap="round" stroke-linejoin="round"/>
</svg>
