<svg width="24" height="24" viewBox="0 0 24 24" fill="none" xmlns="http://www.w3.org/2000/svg">
<path d="M8.154 9.116C8.012 9.116 7.89333 9.068 7.798 8.972C7.70267 8.876 7.65467 8.757 7.654 8.615C7.65333 8.473 7.70133 8.35433 7.798 8.259C7.89467 8.16367 8.01333 8.116 8.154 8.116H19.5C19.642 8.116 19.7607 8.16367 19.856 8.259C19.952 8.355 20 8.474 20 8.616C20 8.758 19.952 8.87667 19.856 8.972C19.76 9.06733 19.6413 9.11533 19.5 9.116H8.154ZM8.154 12.5C8.012 12.5 7.89333 12.452 7.798 12.356C7.70267 12.26 7.65467 12.141 7.654 11.999C7.65333 11.857 7.70133 11.7383 7.798 11.643C7.89467 11.5477 8.01333 11.5 8.154 11.5H19.5C19.642 11.5 19.7607 11.548 19.856 11.644C19.9513 11.74 19.9993 11.859 20 12.001C20.0007 12.143 19.9527 12.2617 19.856 12.357C19.7593 12.4523 19.6407 12.5 19.5 12.5H8.154ZM8.154 15.885C8.012 15.885 7.89333 15.837 7.798 15.741C7.702 15.645 7.654 15.526 7.654 15.384C7.654 15.242 7.702 15.1233 7.798 15.028C7.894 14.9327 8.01267 14.8847 8.154 14.884H19.5C19.642 14.884 19.7607 14.9323 19.856 15.029C19.9513 15.1257 19.9993 15.2443 20 15.385C20.0007 15.5257 19.9527 15.6443 19.856 15.741C19.7593 15.8377 19.6407 15.8857 19.5 15.885H8.154ZM4.616 9.23C4.44133 9.23 4.295 9.169 4.177 9.047C4.059 8.92633 4 8.776 4 8.596C4 8.42733 4.059 8.286 4.177 8.172C4.295 8.05733 4.44133 8 4.616 8C4.79 8 4.936 8.05733 5.054 8.172C5.172 8.28533 5.231 8.42667 5.231 8.596C5.231 8.776 5.172 8.92667 5.054 9.048C4.936 9.17 4.78967 9.231 4.615 9.231M4.615 12.596C4.441 12.596 4.295 12.539 4.177 12.425C4.059 12.311 4 12.1693 4 12C4 11.8067 4.059 11.6527 4.177 11.538C4.295 11.4233 4.44133 11.3657 4.616 11.365C4.79067 11.3643 4.93667 11.4217 5.054 11.537C5.17133 11.6523 5.23033 11.8067 5.231 12C5.231 12.1687 5.172 12.3103 5.054 12.425C4.936 12.5397 4.78967 12.5967 4.615 12.596ZM4.615 16C4.441 16 4.295 15.9393 4.177 15.818C4.059 15.696 4 15.5453 4 15.366C4 15.1967 4.059 15.055 4.177 14.941C4.295 14.8263 4.44133 14.769 4.616 14.769C4.79 14.769 4.936 14.8263 5.054 14.941C5.172 15.0557 5.231 15.1973 5.231 15.366C5.231 15.5453 5.172 15.696 5.054 15.818C4.936 15.9393 4.78967 16 4.615 16Z" fill="#0F172A"/>
</svg>
