<svg width="30" height="30" viewBox="0 0 30 30" fill="none" xmlns="http://www.w3.org/2000/svg">
<path fill-rule="evenodd" clip-rule="evenodd" d="M11.0475 3.12515C10.9546 3.12422 10.8626 3.14403 10.7782 3.18315L2.86175 6.8609C2.75367 6.91109 2.6622 6.99113 2.5981 7.09159C2.53401 7.19205 2.49997 7.30873 2.5 7.4279V25.0001C2.49998 25.1052 2.52641 25.2085 2.57688 25.3006C2.62734 25.3927 2.70019 25.4706 2.78871 25.5271C2.87724 25.5836 2.97857 25.6169 3.08336 25.6239C3.18814 25.6309 3.293 25.6114 3.38825 25.5671L11.0415 22.0119L18.6947 25.5669C18.7773 25.6053 18.8672 25.6252 18.9583 25.6252C19.0493 25.6252 19.1392 25.6053 19.2218 25.5669L23.0818 23.7741L24.7222 26.6154C24.8096 26.7665 24.9838 26.8592 25.2064 26.8732C25.4291 26.8871 25.6821 26.8211 25.9097 26.6896C26.1374 26.5582 26.321 26.3721 26.4202 26.1723C26.5195 25.9725 26.5262 25.7753 26.439 25.6241L24.8865 22.9351L27.1383 21.8894C27.2463 21.8392 27.3378 21.7592 27.4019 21.6587C27.466 21.5582 27.5 21.4416 27.5 21.3224V3.75015C27.5 3.64513 27.4736 3.54179 27.4231 3.44969C27.3727 3.35759 27.2998 3.27969 27.2113 3.22318C27.1228 3.16668 27.0214 3.13339 26.9166 3.12639C26.8119 3.11939 26.707 3.13891 26.6117 3.18315L18.9585 6.73839L11.3053 3.1834C11.2244 3.1458 11.1367 3.12593 11.0475 3.12515ZM11.4113 4.6109L18.5802 7.94165L18.5788 8.16465C17.5623 8.19595 16.5695 8.47881 15.6892 8.9879C12.7355 10.6934 11.7183 14.4904 13.4235 17.4439C14.5173 19.3384 16.4695 20.4299 18.5085 20.5196L18.488 24.0929L11.3193 20.7626L11.4113 4.6109ZM10.6613 4.6159L10.5688 20.8534L3.75 24.0204V7.8269L10.6613 4.6159ZM26.25 4.72965V20.9239L24.2593 21.8489L23.3857 20.3361C23.3381 20.2535 23.264 20.1875 23.1686 20.1426C23.0731 20.0977 22.9586 20.075 22.833 20.0761L22.412 19.3479C24.943 17.5131 25.7423 14.0184 24.146 11.2536C23.2935 9.77664 21.9175 8.78415 20.3857 8.37365C20.0395 8.28147 19.6859 8.21924 19.329 8.18765L19.3305 7.9439L26.25 4.72965ZM18.6575 9.5319C19.121 9.5194 19.5839 9.57413 20.0317 9.6944C20.643 9.85788 21.2159 10.1406 21.7175 10.5263C22.2191 10.912 22.6395 11.3931 22.9545 11.9419C23.272 12.4891 23.4784 13.0936 23.5616 13.7207C23.6449 14.3478 23.6035 14.9852 23.4398 15.5963C23.2761 16.2074 22.9933 16.7801 22.6076 17.2816C22.222 17.7831 21.7411 18.2035 21.1925 18.5186C20.6452 18.8361 20.0407 19.0424 19.4135 19.1257C18.7863 19.209 18.1488 19.1675 17.5377 19.0038C16.9266 18.8401 16.3538 18.5572 15.8522 18.1716C15.3507 17.7859 14.9302 17.305 14.615 16.7564C14.2976 16.2091 14.0914 15.6046 14.0082 14.9775C13.925 14.3503 13.9664 13.7129 14.1302 13.1018C14.294 12.4907 14.5768 11.918 14.9624 11.4165C15.3481 10.915 15.829 10.4946 16.3775 10.1794C17.0716 9.77676 17.8554 9.55417 18.6575 9.5319ZM21.3 19.9899L21.7208 20.7189C21.6569 20.8271 21.6192 20.9375 21.6103 21.0426C21.6014 21.1476 21.6214 21.2448 21.669 21.3274L22.454 22.6871L19.2377 24.1814L19.2588 20.5064C19.9638 20.4529 20.6543 20.278 21.3 19.9899Z" fill="black"/>
</svg>
