<svg width="24" height="24" viewBox="0 0 24 24" fill="none" xmlns="http://www.w3.org/2000/svg">
<path d="M8.32562 5.27211V21.4421M15.6756 2.55811V18.7281M16.2206 2.66311C15.8707 2.52342 15.4805 2.52342 15.1306 2.66311L8.87062 5.16711C8.52062 5.30711 8.13062 5.30711 7.78062 5.16711L1.98262 2.84811C1.87081 2.80338 1.74973 2.7868 1.63002 2.79984C1.51031 2.81288 1.39563 2.85514 1.29608 2.92289C1.19653 2.99064 1.11515 3.08181 1.05909 3.18839C1.00304 3.29497 0.974031 3.41369 0.974618 3.53411V17.6201C0.974618 18.2211 1.34062 18.7621 1.89862 18.9851L7.77862 21.3371C8.12862 21.4771 8.51962 21.4771 8.87062 21.3371L15.1286 18.8331C15.4786 18.6931 15.8696 18.6931 16.2206 18.8331L22.0166 21.1481C22.1284 21.1928 22.2495 21.2094 22.3692 21.1964C22.4889 21.1833 22.6036 21.1411 22.7032 21.0733C22.8027 21.0056 22.8841 20.9144 22.9401 20.8078C22.9962 20.7012 23.0252 20.5825 23.0246 20.4621V6.38011C23.0247 6.0863 22.9366 5.79922 22.7719 5.55591C22.6072 5.3126 22.3734 5.12423 22.1006 5.01511L16.2206 2.66311Z" stroke="#0F172A" stroke-linecap="round" stroke-linejoin="round"/>
</svg>
