<svg width="13" height="13" viewBox="0 0 13 13" fill="none" xmlns="http://www.w3.org/2000/svg">
<g clip-path="url(#clip0_234_4112)">
<path d="M4.50914 2.85583V11.6146M8.49039 1.38574V10.1445M8.7856 1.44262C8.59606 1.36696 8.38472 1.36696 8.19518 1.44262L4.80435 2.79895C4.61477 2.87478 4.40352 2.87478 4.21393 2.79895L1.07335 1.54283C1.01279 1.5186 0.947202 1.50962 0.882358 1.51668C0.817514 1.52375 0.755398 1.54663 0.701474 1.58333C0.64755 1.62003 0.603468 1.66942 0.573106 1.72715C0.542743 1.78488 0.52703 1.84918 0.527348 1.91441V9.54433C0.527348 9.86987 0.725599 10.1629 1.02785 10.2837L4.21285 11.5577C4.40243 11.6335 4.61422 11.6335 4.80435 11.5577L8.1941 10.2014C8.38368 10.1255 8.59547 10.1255 8.7856 10.2014L11.9251 11.4553C11.9857 11.4796 12.0512 11.4885 12.1161 11.4815C12.1809 11.4744 12.243 11.4515 12.297 11.4148C12.3509 11.3781 12.395 11.3287 12.4253 11.271C12.4557 11.2133 12.4714 11.149 12.4711 11.0837V3.45599C12.4711 3.29685 12.4234 3.14134 12.3342 3.00955C12.245 2.87776 12.1184 2.77573 11.9706 2.71662L8.7856 1.44262Z" stroke="#0F172A" stroke-linecap="round" stroke-linejoin="round"/>
</g>
<defs>
<clipPath id="clip0_234_4112">
<rect width="13" height="13" fill="white"/>
</clipPath>
</defs>
</svg>
