<svg width="24" height="24" viewBox="0 0 24 24" fill="none" xmlns="http://www.w3.org/2000/svg">
<path d="M4.616 5L5.74 7.25C5.85667 7.48333 6.02333 7.66667 6.24 7.8C6.45667 7.93333 6.69 8 6.94 8C7.44 8 7.82333 7.78733 8.09 7.362C8.35667 6.93667 8.37333 6.49933 8.14 6.05L7.616 5H9.616L10.741 7.25C10.8577 7.48333 11.0243 7.66667 11.241 7.8C11.4577 7.93333 11.691 8 11.941 8C12.441 8 12.8243 7.78733 13.091 7.362C13.3577 6.93667 13.3743 6.49933 13.141 6.05L12.616 5H14.616L15.741 7.25C15.8577 7.48333 16.0243 7.66667 16.241 7.8C16.4577 7.93333 16.691 8 16.941 8C17.441 8 17.8243 7.78733 18.091 7.362C18.3577 6.93667 18.3743 6.49933 18.141 6.05L17.616 5H19.385C19.845 5 20.2293 5.15433 20.538 5.463C20.8467 5.77167 21.0007 6.156 21 6.616V17.385C21 17.845 20.846 18.2293 20.538 18.538C20.23 18.8467 19.8457 19.0007 19.385 19H4.615C4.155 19 3.771 18.846 3.463 18.538C3.155 18.23 3.00067 17.8453 3 17.384V6.616C3 6.15533 3.15433 5.771 3.463 5.463C3.77167 5.155 4.15567 5.00067 4.615 5M4 9V17.385C4 17.5643 4.05767 17.7117 4.173 17.827C4.28833 17.9423 4.436 18 4.616 18H19.385C19.5643 18 19.7117 17.9423 19.827 17.827C19.9423 17.7117 20 17.5643 20 17.385V9H4Z" fill="#0F172A"/>
</svg>
