<svg width="24" height="24" viewBox="0 0 24 24" fill="none" xmlns="http://www.w3.org/2000/svg">
<path fill-rule="evenodd" clip-rule="evenodd" d="M12.8041 22.0411L12.7931 22.0431L12.7221 22.0781L12.7021 22.0821L12.6881 22.0781L12.6171 22.0431C12.6064 22.0398 12.5984 22.0415 12.5931 22.0481L12.5891 22.0581L12.5721 22.4861L12.5771 22.5061L12.5871 22.5191L12.6911 22.5931L12.7061 22.5971L12.7181 22.5931L12.8221 22.5191L12.8341 22.5031L12.8381 22.4861L12.8211 22.0591C12.8184 22.0485 12.8128 22.0425 12.8041 22.0411ZM13.0691 21.9281L13.0561 21.9301L12.8711 22.0231L12.8611 22.0331L12.8581 22.0441L12.8761 22.4741L12.8811 22.4861L12.8891 22.4931L13.0901 22.5861C13.1028 22.5895 13.1124 22.5868 13.1191 22.5781L13.1231 22.5641L13.0891 21.9501C13.0858 21.9381 13.0791 21.9308 13.0691 21.9281ZM12.3541 21.9301C12.3497 21.9275 12.3444 21.9266 12.3394 21.9277C12.3344 21.9288 12.33 21.9319 12.3271 21.9361L12.3211 21.9501L12.2871 22.5641C12.2878 22.5761 12.2934 22.5841 12.3041 22.5881L12.3191 22.5861L12.5201 22.4931L12.5301 22.4851L12.5341 22.4741L12.5511 22.0441L12.5481 22.0321L12.5381 22.0221L12.3541 21.9301Z" fill="#0F172A"/>
<path fill-rule="evenodd" clip-rule="evenodd" d="M19.058 3.93327L5.88502 8.67527L11.13 10.7283C11.387 10.8287 11.6203 10.9812 11.8155 11.1762C12.0107 11.3712 12.1634 11.6044 12.264 11.8613L14.316 17.1063L19.058 3.93327ZM19.98 1.47627C20.936 1.13227 21.86 2.05627 21.516 3.01127L15.476 19.7883C15.101 20.8313 13.634 20.8513 13.23 19.8183L10.401 12.5903L3.17302 9.76227C2.14102 9.35827 2.16102 7.89127 3.20302 7.51527L19.98 1.47627Z" fill="#0F172A"/>
</svg>
