<svg width="24" height="24" viewBox="0 0 24 24" fill="none" xmlns="http://www.w3.org/2000/svg">
<path d="M11.9991 3.1543L19.7931 7.6543V15.4993C19.7931 15.8504 19.7007 16.1952 19.5251 16.4993C19.3496 16.8033 19.0971 17.0558 18.7931 17.2313L12.9991 20.5773C12.695 20.7528 12.3502 20.8452 11.9991 20.8452C11.648 20.8452 11.3031 20.7528 10.9991 20.5773L5.20508 17.2313C4.90105 17.0558 4.64858 16.8033 4.47304 16.4993C4.2975 16.1952 4.20509 15.8504 4.20508 15.4993V7.6543L11.9991 3.1543Z" stroke="#0F172A" stroke-linecap="round" stroke-linejoin="round"/>
<path d="M11.9999 7.1543V12.1543M11.9999 12.1543L7.66992 14.6543M11.9999 12.1543L16.3299 14.6543" stroke="#0F172A" stroke-linecap="round" stroke-linejoin="round"/>
</svg>
