<svg width="24" height="24" viewBox="0 0 24 24" fill="none" xmlns="http://www.w3.org/2000/svg">
<path d="M17.6327 4.80902C20.7827 7.90702 20.7827 12.865 17.6747 15.922L12.0037 21.5L6.33072 15.922C5.59294 15.2011 5.00669 14.34 4.60644 13.3893C4.20619 12.4386 4 11.4175 4 10.386C4 9.35451 4.20619 8.3334 4.60644 7.38271C5.00669 6.43202 5.59294 5.57092 6.33072 4.85002L6.37272 4.80902C7.87288 3.32948 9.8952 2.5 12.0022 2.5C14.1092 2.5 16.1326 3.32948 17.6327 4.80902ZM17.6327 4.80902C17.5907 4.76702 17.5907 4.76702 17.6327 4.80902ZM14.0007 9.50002C14.0007 10.0305 13.79 10.5392 13.4149 10.9142C13.0399 11.2893 12.5312 11.5 12.0007 11.5C11.4703 11.5 10.9616 11.2893 10.5865 10.9142C10.2114 10.5392 10.0007 10.0305 10.0007 9.50002C10.0007 8.96959 10.2114 8.46088 10.5865 8.08581C10.9616 7.71074 11.4703 7.50002 12.0007 7.50002C12.5312 7.50002 13.0399 7.71074 13.4149 8.08581C13.79 8.46088 14.0007 8.96959 14.0007 9.50002Z" stroke="#0F172A" stroke-width="1.5" stroke-miterlimit="10" stroke-linecap="round" stroke-linejoin="round"/>
</svg>
