<svg width="24" height="24" viewBox="0 0 24 24" fill="none" xmlns="http://www.w3.org/2000/svg">
<path d="M11.9992 14H8.9992M8.4862 21H15.5122C16.1424 21 16.7636 20.8511 17.3253 20.5654C17.887 20.2798 18.3733 19.8654 18.7444 19.3562C19.1156 18.847 19.3613 18.2573 19.4613 17.6351C19.5614 17.0129 19.513 16.3759 19.3202 15.776L17.6142 10.47C17.2903 9.4622 16.6549 8.58321 15.7994 7.95963C14.944 7.33604 13.9128 7.00003 12.8542 7H11.1442C10.0856 7.00003 9.05437 7.33604 8.19896 7.95963C7.34355 8.58321 6.70813 9.4622 6.3842 10.47L4.6782 15.776C4.48537 16.3759 4.43702 17.0129 4.53707 17.6351C4.63712 18.2573 4.88276 18.847 5.25395 19.3562C5.62515 19.8654 6.11141 20.2798 6.67311 20.5654C7.2348 20.8511 7.85604 21 8.4862 21ZM14.9992 3C14.3325 5.66667 13.3325 7 11.9992 7C10.6659 7 9.66587 5.66667 8.9992 3H14.9992Z" stroke="#0F172A" stroke-linecap="round" stroke-linejoin="round"/>
<path d="M13.9993 11.172C13.5467 11.0118 13.0624 10.9625 12.5868 11.0283C12.1113 11.0941 11.6585 11.2731 11.2665 11.5501C10.8745 11.8272 10.5547 12.1943 10.334 12.6206C10.1132 13.0469 9.99805 13.52 9.99805 14C9.99805 14.4801 10.1132 14.9531 10.334 15.3794C10.5547 15.8057 10.8745 16.1728 11.2665 16.4499C11.6585 16.7269 12.1113 16.9059 12.5868 16.9717C13.0624 17.0375 13.5467 16.9882 13.9993 16.828" stroke="#0F172A" stroke-linecap="round" stroke-linejoin="round"/>
</svg>
