<svg width="24" height="24" viewBox="0 0 24 24" fill="none" xmlns="http://www.w3.org/2000/svg">
<path d="M12 21C10.7547 21 9.58467 20.7637 8.49 20.291C7.39533 19.8184 6.443 19.1774 5.633 18.368C4.823 17.5587 4.18167 16.606 3.709 15.51C3.23633 14.414 3 13.244 3 12H4C4 14.0834 4.697 15.884 6.091 17.402C7.485 18.92 9.22 19.7747 11.296 19.966L9.731 18.4L10.439 17.692L13.566 20.819C13.3127 20.8837 13.0527 20.93 12.786 20.958C12.5193 20.986 12.2573 21 12 21ZM12.808 14.692V9.30802H15.577C15.8603 9.30802 16.0977 9.40369 16.289 9.59502C16.4803 9.78636 16.5763 10.024 16.577 10.308V13.692C16.577 13.9754 16.481 14.213 16.289 14.405C16.097 14.597 15.8597 14.6927 15.577 14.692H12.808ZM7.423 14.692V13.808H10.308V12.384H8.423V11.615H10.308V10.192H7.423V9.30802H10.5C10.696 9.30802 10.8603 9.37436 10.993 9.50702C11.1257 9.63969 11.1923 9.80402 11.193 10V14C11.193 14.196 11.1263 14.3604 10.993 14.493C10.8597 14.6257 10.6953 14.6924 10.5 14.693L7.423 14.692ZM13.693 13.808H15.462C15.5387 13.808 15.5963 13.7887 15.635 13.75C15.6737 13.7114 15.6927 13.6537 15.692 13.577V10.423C15.692 10.3464 15.6727 10.2887 15.634 10.25C15.596 10.2114 15.5383 10.192 15.461 10.192H13.692L13.693 13.808ZM20 12C20 9.91669 19.303 8.11602 17.909 6.59802C16.515 5.08002 14.78 4.22536 12.704 4.03402L14.269 5.60002L13.561 6.30802L10.434 3.18102C10.6873 3.11702 10.9473 3.07069 11.214 3.04202C11.4807 3.01336 11.7427 2.99936 12 3.00002C13.2453 3.00002 14.4153 3.23636 15.51 3.70902C16.6047 4.18169 17.5573 4.82302 18.368 5.63302C19.1787 6.44302 19.8193 7.39536 20.29 8.49002C20.7607 9.58469 20.9973 10.7547 21 12H20Z" fill="#0F172A"/>
</svg>
