<svg width="24" height="24" viewBox="0 0 24 24" fill="none" xmlns="http://www.w3.org/2000/svg">
<path d="M12 20C9.66267 20 7.745 19.7023 6.247 19.107C4.749 18.5117 4 17.745 4 16.807V7C4 6.16933 4.78 5.46167 6.34 4.877C7.9 4.29233 9.78667 4 12 4C14.2133 4 16.1 4.29233 17.66 4.877C19.22 5.46167 20 6.16933 20 7V16.808C20 17.7447 19.251 18.511 17.753 19.107C16.255 19.703 14.3373 20.0007 12 20ZM12 8.89C13.432 8.89 14.8753 8.69033 16.33 8.291C17.786 7.89167 18.6567 7.45667 18.942 6.986C18.6687 6.49 17.812 6.035 16.372 5.621C14.932 5.207 13.4747 5 12 5C10.5473 5 9.092 5.19967 7.634 5.599C6.176 5.99833 5.30433 6.435 5.019 6.909C5.291 7.409 6.14967 7.86433 7.595 8.275C9.04033 8.68567 10.5087 8.89 12 8.89ZM12 13.923C12.6867 13.923 13.3617 13.8897 14.025 13.823C14.6883 13.7563 15.322 13.6573 15.926 13.526C16.53 13.3947 17.0917 13.231 17.611 13.035C18.1303 12.839 18.5933 12.6173 19 12.37V8.275C18.5927 8.52167 18.1293 8.743 17.61 8.939C17.092 9.135 16.5307 9.29833 15.926 9.429C15.3213 9.561 14.6877 9.66033 14.025 9.727C13.3623 9.79367 12.6873 9.827 12 9.827C11.2867 9.827 10.5937 9.79033 9.921 9.717C9.24833 9.64367 8.613 9.54167 8.015 9.411C7.417 9.28033 6.86267 9.11967 6.352 8.929C5.84133 8.73833 5.39067 8.52033 5 8.275V12.371C5.39133 12.6177 5.842 12.8357 6.352 13.025C6.862 13.2143 7.41633 13.375 8.015 13.507C8.61233 13.6383 9.24767 13.7407 9.921 13.814C10.5943 13.8873 11.2873 13.9237 12 13.923ZM12 19C12.8567 19 13.671 18.9513 14.443 18.854C15.215 18.7567 15.909 18.6187 16.525 18.44C17.141 18.2613 17.6643 18.0477 18.095 17.799C18.5257 17.5503 18.8273 17.282 19 16.994V13.371C18.5927 13.6177 18.1293 13.839 17.61 14.035C17.092 14.231 16.5307 14.3947 15.926 14.526C15.3213 14.6573 14.6877 14.7563 14.025 14.823C13.3623 14.8897 12.6873 14.923 12 14.923C11.2867 14.923 10.5937 14.8863 9.921 14.813C9.24833 14.7397 8.613 14.6377 8.015 14.507C7.417 14.3763 6.86267 14.2157 6.352 14.025C5.84133 13.8357 5.39067 13.6177 5 13.371V17C5.17333 17.3013 5.47433 17.572 5.903 17.812C6.33167 18.052 6.85367 18.261 7.469 18.439C8.08433 18.617 8.77933 18.7553 9.554 18.854C10.3287 18.9527 11.144 19.0013 12 19Z" fill="#0F172A"/>
</svg>
