<svg width="24" height="24" viewBox="0 0 24 24" fill="none" xmlns="http://www.w3.org/2000/svg">
<path d="M7.03901 4.60655C6.68089 4.60405 6.30183 4.64655 5.91151 4.73124L8.04058 12.1865C7.59683 12.0272 7.0662 11.9928 6.53776 12.0865C5.3137 12.3022 4.43933 13.1428 4.58401 13.9553C4.72901 14.7709 5.83839 15.2584 7.06308 15.0397C8.28433 14.824 9.15933 13.9865 9.01245 13.1709C8.32183 10.6459 7.62495 8.07717 6.93776 5.53936C8.52183 5.65155 9.2062 6.52624 9.7687 7.42405C9.75308 5.47624 8.59058 4.61749 7.03901 4.60655ZM16.7468 5.56592C16.3125 5.56905 15.8468 5.64686 15.3687 5.79155L18.0906 13.0553C17.6343 12.9334 17.1031 12.9397 16.5812 13.0772C15.3812 13.3897 14.575 14.2959 14.7843 15.0959C14.9937 15.899 16.1406 16.2928 17.3406 15.9772C18.5437 15.6647 19.3468 14.7584 19.1375 13.9584C18.2437 11.4959 17.3468 8.9928 16.4562 6.51467C18.0437 6.49905 18.7968 7.3178 19.4312 8.1678C19.2687 6.33811 18.1687 5.55499 16.7468 5.56592ZM12.05 9.13655L12.1062 16.8897C11.7218 16.6209 11.2187 16.4428 10.6812 16.3928C9.44995 16.274 8.37808 16.8459 8.29995 17.674C8.22183 18.4959 9.16558 19.2615 10.3968 19.3772C11.6375 19.499 12.7 18.924 12.7812 18.099C12.7875 15.4803 12.8062 12.8209 12.8218 10.1897C14.3187 10.7209 14.7468 11.7459 15.0468 12.7647C15.6687 10.449 14.175 9.2553 12.05 9.13655Z" fill="#0F172A"/>
</svg>
