<svg width="24" height="24" viewBox="0 0 24 24" fill="none" xmlns="http://www.w3.org/2000/svg">
<path d="M20 21.5C20.3978 21.5 20.7794 21.342 21.0607 21.0607C21.342 20.7794 21.5 20.3978 21.5 20V16.5C21.5 16.1022 21.342 15.7206 21.0607 15.4393C20.7794 15.158 20.3978 15 20 15C18.83 15 17.68 14.82 16.58 14.45C16.317 14.367 16.0363 14.3576 15.7683 14.4228C15.5004 14.488 15.2554 14.6254 15.06 14.82L13.62 16.26C11.1322 14.9024 9.08758 12.8578 7.73 10.37L9.16 8.94C9.57 8.55 9.72 7.97 9.54 7.41C9.18 6.32 9 5.17 9 4C9 3.60218 8.84196 3.22064 8.56066 2.93934C8.27936 2.65804 7.89782 2.5 7.5 2.5H4C3.60218 2.5 3.22064 2.65804 2.93934 2.93934C2.65804 3.22064 2.5 3.60218 2.5 4C2.5 13.65 10.35 21.5 20 21.5ZM4 3.5H7.5C7.63261 3.5 7.75979 3.55268 7.85355 3.64645C7.94732 3.74021 8 3.86739 8 4C8 5.28 8.2 6.53 8.59 7.72C8.64 7.86 8.63 8.06 8.47 8.22L6.5 10.18C8.15 13.41 10.57 15.83 13.81 17.5L15.76 15.53C15.9 15.39 16.09 15.35 16.27 15.4C17.47 15.8 18.72 16 20 16C20.1326 16 20.2598 16.0527 20.3536 16.1464C20.4473 16.2402 20.5 16.3674 20.5 16.5V20C20.5 20.1326 20.4473 20.2598 20.3536 20.3536C20.2598 20.4473 20.1326 20.5 20 20.5C10.9 20.5 3.5 13.1 3.5 4C3.5 3.86739 3.55268 3.74021 3.64645 3.64645C3.74021 3.55268 3.86739 3.5 4 3.5Z" fill="#0F172A"/>
</svg>
