<svg width="24" height="24" viewBox="0 0 24 24" fill="none" xmlns="http://www.w3.org/2000/svg">
<path d="M12 20.5C7.3 20.5 3.5 16.7 3.5 12C3.5 7.3 7.3 3.5 12 3.5C16.7 3.5 20.5 7.3 20.5 12C20.5 16.7 16.7 20.5 12 20.5ZM12 4.5C7.85 4.5 4.5 7.85 4.5 12C4.5 16.15 7.85 19.5 12 19.5C16.15 19.5 19.5 16.15 19.5 12C19.5 7.85 16.15 4.5 12 4.5Z" fill="#0F172A"/>
<path d="M11.8504 16.8499L11.1504 16.1499L15.3004 11.9999L11.1504 7.8499L11.8504 7.1499L16.7004 11.9999L11.8504 16.8499Z" fill="#0F172A"/>
<path d="M7.5 11.5H16V12.5H7.5V11.5Z" fill="#0F172A"/>
</svg>
