<svg width="24" height="24" viewBox="0 0 24 24" fill="none" xmlns="http://www.w3.org/2000/svg">
<path d="M20.25 18.2358H3.75C3.19772 18.2358 2.75 18.6836 2.75 19.2358V20.2358C2.75 20.7881 3.19772 21.2358 3.75 21.2358H20.25C20.8023 21.2358 21.25 20.7881 21.25 20.2358V19.2358C21.25 18.6836 20.8023 18.2358 20.25 18.2358Z" stroke="#0F172A" stroke-linecap="round" stroke-linejoin="round"/>
<path d="M5.25 9.73362V18.2436M18.75 9.73362V18.2436M14.5 9.73362V18.2436M9.5 9.73362V18.2436M11.04 3.00962L3.27 7.25962C3.11263 7.34573 2.98132 7.47258 2.88984 7.62687C2.79835 7.78117 2.75005 7.95724 2.75 8.13662V9.13362C2.75 9.29275 2.81321 9.44537 2.92574 9.55789C3.03826 9.67041 3.19087 9.73362 3.35 9.73362H20.65C20.8091 9.73362 20.9617 9.67041 21.0743 9.55789C21.1868 9.44537 21.25 9.29275 21.25 9.13362V8.13662C21.25 7.95724 21.2017 7.78117 21.1102 7.62687C21.0187 7.47258 20.8874 7.34573 20.73 7.25962L12.96 3.00962C12.6657 2.84857 12.3355 2.76416 12 2.76416C11.6645 2.76416 11.3343 2.84857 11.04 3.00962Z" stroke="#0F172A" stroke-linecap="round" stroke-linejoin="round"/>
</svg>
