<svg width="24" height="24" viewBox="0 0 24 24" fill="none" xmlns="http://www.w3.org/2000/svg">
<path d="M12.253 19.3988L7.99 15.7808C7.80936 15.6273 7.58006 15.543 7.343 15.5428H4.75C4.21957 15.5428 3.71086 15.3321 3.33579 14.9571C2.96071 14.582 2.75 14.0733 2.75 13.5428V10.4568C2.75 9.92641 2.96071 9.4177 3.33579 9.04262C3.71086 8.66755 4.21957 8.45684 4.75 8.45684H7.344C7.58106 8.4567 7.81036 8.37235 7.991 8.21884L12.253 4.59884C12.3985 4.4754 12.5762 4.39616 12.7653 4.37045C12.9543 4.34474 13.1467 4.37365 13.3199 4.45376C13.493 4.53387 13.6397 4.66183 13.7425 4.82256C13.8452 4.98328 13.8999 5.17006 13.9 5.36084V18.6388C13.8999 18.8296 13.8452 19.0164 13.7425 19.1771C13.6397 19.3378 13.493 19.4658 13.3199 19.5459C13.1467 19.626 12.9543 19.6549 12.7653 19.6292C12.5762 19.6035 12.3985 19.5243 12.253 19.4008V19.3988Z" stroke="#0F172A" stroke-linejoin="round"/>
<path d="M16.6641 8.54085C17.1441 8.89085 17.5441 9.39485 17.8221 10.0029C18.0991 10.6099 18.2461 11.2979 18.2461 11.9989C18.2461 12.6989 18.0991 13.3889 17.8221 13.9949C17.5441 14.6019 17.1451 15.1069 16.6641 15.4569M18.7001 6.42285C19.4751 6.98785 20.1201 7.80085 20.5671 8.77985C21.0141 9.75785 21.2501 10.8689 21.2501 11.9989C21.2501 13.1289 21.0141 14.2389 20.5671 15.2189C20.1191 16.1969 19.4751 17.0099 18.7001 17.5749" stroke="#0F172A" stroke-linecap="round" stroke-linejoin="round"/>
</svg>
