<svg width="24" height="24" viewBox="0 0 24 24" fill="none" xmlns="http://www.w3.org/2000/svg">
<path d="M5 6H7M12.1 19L10.08 17M12.1 19L10.08 21M12.1 19C7.05 19 2.81 17 2 15M15.131 18.771C18.602 18.231 21.266 16.79 22 15M7 3H17C18.87 3 19.804 3 20.5 3.402C20.956 3.66529 21.3347 4.04398 21.598 4.5C22 5.196 22 6.13 22 8C22 9.87 22 10.804 21.598 11.5C21.3347 11.956 20.956 12.3347 20.5 12.598C19.804 13 18.87 13 17 13H16.606C15.919 13 15.576 13 15.255 12.929C14.8248 12.8335 14.4209 12.6443 14.072 12.375C13.812 12.173 13.592 11.91 13.152 11.382C12.802 10.962 12.626 10.752 12.425 10.657C12.292 10.5946 12.1469 10.5622 12 10.5622C11.8531 10.5622 11.708 10.5946 11.575 10.657C11.374 10.751 11.199 10.961 10.848 11.382C10.408 11.91 10.188 12.173 9.928 12.375C9.57915 12.6443 9.17524 12.8335 8.745 12.929C8.425 13 8.081 13 7.394 13H7C5.13 13 4.196 13 3.5 12.598C3.04398 12.3347 2.66529 11.956 2.402 11.5C2 10.804 2 9.87 2 8C2 6.13 2 5.196 2.402 4.5C2.66529 4.04398 3.04398 3.66529 3.5 3.402C4.196 3 5.13 3 7 3Z" stroke="#0F172A" stroke-linecap="round" stroke-linejoin="round"/>
</svg>
